<mxfile host="app.diagrams.net" modified="2023-03-09T15:11:53.082Z" agent="5.0 (Windows NT 10.0; Win64; x64) AppleWebKit/537.36 (KHTML, like Gecko) Chrome/104.0.0.0 Safari/537.36" etag="RWosPQJTycBITUOw0HxV" version="21.0.6" type="github">
  <diagram name="Page-1" id="OyKRLrLjOuQFlBjgFoh2">
    <mxGraphModel dx="842" dy="434" grid="1" gridSize="10" guides="1" tooltips="1" connect="1" arrows="1" fold="1" page="1" pageScale="1" pageWidth="850" pageHeight="1100" math="0" shadow="0">
      <root>
        <mxCell id="0" />
        <mxCell id="1" parent="0" />
        <mxCell id="be3c8GIeeOyPUYYHq34q-4" value="WATER" style="rounded=0;whiteSpace=wrap;html=1;" vertex="1" parent="1">
          <mxGeometry x="570" y="200" width="110" height="40" as="geometry" />
        </mxCell>
        <mxCell id="be3c8GIeeOyPUYYHq34q-22" value="" style="edgeStyle=orthogonalEdgeStyle;rounded=0;orthogonalLoop=1;jettySize=auto;html=1;" edge="1" parent="1" target="be3c8GIeeOyPUYYHq34q-5">
          <mxGeometry relative="1" as="geometry">
            <mxPoint x="510" y="220" as="sourcePoint" />
          </mxGeometry>
        </mxCell>
        <mxCell id="be3c8GIeeOyPUYYHq34q-5" value="R" style="rounded=0;whiteSpace=wrap;html=1;" vertex="1" parent="1">
          <mxGeometry x="480" y="310" width="60" height="40" as="geometry" />
        </mxCell>
        <mxCell id="be3c8GIeeOyPUYYHq34q-7" value="Q" style="rounded=0;whiteSpace=wrap;html=1;" vertex="1" parent="1">
          <mxGeometry x="255" y="310" width="60" height="40" as="geometry" />
        </mxCell>
        <mxCell id="be3c8GIeeOyPUYYHq34q-17" value="" style="edgeStyle=orthogonalEdgeStyle;rounded=0;orthogonalLoop=1;jettySize=auto;html=1;" edge="1" parent="1" source="be3c8GIeeOyPUYYHq34q-8">
          <mxGeometry relative="1" as="geometry">
            <mxPoint x="565" y="220" as="targetPoint" />
          </mxGeometry>
        </mxCell>
        <mxCell id="be3c8GIeeOyPUYYHq34q-8" value="P" style="rounded=0;whiteSpace=wrap;html=1;" vertex="1" parent="1">
          <mxGeometry x="395" y="200" width="60" height="40" as="geometry" />
        </mxCell>
        <mxCell id="be3c8GIeeOyPUYYHq34q-10" value="" style="endArrow=classic;html=1;rounded=0;exitX=1;exitY=0.5;exitDx=0;exitDy=0;" edge="1" parent="1">
          <mxGeometry width="50" height="50" relative="1" as="geometry">
            <mxPoint x="220" y="220" as="sourcePoint" />
            <mxPoint x="360" y="220" as="targetPoint" />
          </mxGeometry>
        </mxCell>
        <mxCell id="be3c8GIeeOyPUYYHq34q-15" value="" style="edgeStyle=orthogonalEdgeStyle;rounded=0;orthogonalLoop=1;jettySize=auto;html=1;" edge="1" parent="1">
          <mxGeometry relative="1" as="geometry">
            <mxPoint x="285" y="220" as="sourcePoint" />
            <mxPoint x="285" y="310" as="targetPoint" />
          </mxGeometry>
        </mxCell>
        <mxCell id="be3c8GIeeOyPUYYHq34q-11" value="&lt;p style=&quot;line-height: 120%;&quot;&gt;&lt;font style=&quot;font-size: 14px;&quot;&gt;Filtration&lt;/font&gt;&lt;/p&gt;" style="text;html=1;strokeColor=none;fillColor=none;align=center;verticalAlign=middle;whiteSpace=wrap;rounded=0;" vertex="1" parent="1">
          <mxGeometry x="240" y="185" width="90" height="50" as="geometry" />
        </mxCell>
        <mxCell id="be3c8GIeeOyPUYYHq34q-12" value="&lt;font style=&quot;font-size: 14px;&quot;&gt;Distillation&lt;/font&gt;" style="text;html=1;strokeColor=none;fillColor=none;align=center;verticalAlign=middle;whiteSpace=wrap;rounded=0;" vertex="1" parent="1">
          <mxGeometry x="465" y="190" width="90" height="40" as="geometry" />
        </mxCell>
        <mxCell id="be3c8GIeeOyPUYYHq34q-24" value="MIXTURE" style="rounded=0;whiteSpace=wrap;html=1;" vertex="1" parent="1">
          <mxGeometry x="110" y="200" width="110" height="40" as="geometry" />
        </mxCell>
      </root>
    </mxGraphModel>
  </diagram>
</mxfile>
